<?xml version="1.0" encoding="UTF-8"?>
<svg width="700pt" height="700pt" version="1.1" viewBox="0 0 700 700" xmlns="http://www.w3.org/2000/svg" xmlns:xlink="http://www.w3.org/1999/xlink">
 <g>
  <path d="m159.6 117.6c-24.855 0-44.801 20.906-44.801 46.023v232.57c0 25.117 19.945 46.199 44.801 46.199h380.8c24.855 0 44.801-21.082 44.801-46.199v-232.57c0-25.117-19.941-46.023-44.801-46.023zm0 22.398h380.8c3.2852 0 6.4648 0.80078 9.2734 2.1016l-185.15 171.32c-8.5547 7.9141-19.953 7.9141-28.523 0l-185.5-171.32c2.7734-1.2578 5.8711-2.1016 9.1016-2.1016zm-22.051 20.648 131.43 121.45-128.98 125.48c-1.7031-3.3633-2.8008-7.1719-2.8008-11.375v-232.57c0-1.0273 0.24219-1.9883 0.35156-2.9766zm424.9 0.17187c0.10156 0.92969 0.34766 1.832 0.34766 2.8008v232.57c0 4.1133-0.98828 7.8867-2.625 11.199l-128.62-125.48 130.9-121.1zm-147.18 136.15 125.82 123.02h-0.69922-380.8c-0.17969 0-0.34766 0.003906-0.52734 0l126.35-122.85 35.352 32.727c16.617 15.348 42.359 15.371 58.977 0z"/>
  <use x="70" y="644" xlink:href="#s"/>
  <use x="90.550781" y="644" xlink:href="#a"/>
  <use x="104.359375" y="644" xlink:href="#c"/>
  <use x="123.347656" y="644" xlink:href="#b"/>
  <use x="142.242188" y="644" xlink:href="#d"/>
  <use x="155.628906" y="644" xlink:href="#c"/>
  <use x="174.617188" y="644" xlink:href="#f"/>
  <use x="204.410156" y="644" xlink:href="#k"/>
  <use x="224.453125" y="644" xlink:href="#j"/>
  <use x="252.453125" y="644" xlink:href="#i"/>
  <use x="273.792969" y="644" xlink:href="#b"/>
  <use x="292.6875" y="644" xlink:href="#a"/>
  <use x="306.496094" y="644" xlink:href="#a"/>
  <use x="320.304688" y="644" xlink:href="#b"/>
  <use x="339.199219" y="644" xlink:href="#h"/>
  <use x="355.796875" y="644" xlink:href="#g"/>
  <use x="375.730469" y="644" xlink:href="#f"/>
  <use x="395.773438" y="644" xlink:href="#b"/>
  <use x="70" y="672" xlink:href="#r"/>
  <use x="82.183594" y="672" xlink:href="#a"/>
  <use x="95.992188" y="672" xlink:href="#e"/>
  <use x="115.226562" y="672" xlink:href="#q"/>
  <use x="154.152344" y="672" xlink:href="#d"/>
  <use x="167.535156" y="672" xlink:href="#p"/>
  <use x="187.46875" y="672" xlink:href="#c"/>
  <use x="216.207031" y="672" xlink:href="#o"/>
  <use x="239.640625" y="672" xlink:href="#e"/>
  <use x="258.878906" y="672" xlink:href="#g"/>
  <use x="278.8125" y="672" xlink:href="#n"/>
  <use x="308.492188" y="672" xlink:href="#m"/>
  <use x="329.015625" y="672" xlink:href="#a"/>
  <use x="342.820312" y="672" xlink:href="#e"/>
  <use x="362.058594" y="672" xlink:href="#l"/>
  <use x="371.65625" y="672" xlink:href="#c"/>
  <use x="390.648438" y="672" xlink:href="#h"/>
  <use x="407.242188" y="672" xlink:href="#d"/>
 </g>
</svg>
