<?xml version="1.0" encoding="UTF-8"?>
<svg width="700pt" height="700pt" version="1.1" viewBox="0 0 700 700" xmlns="http://www.w3.org/2000/svg" xmlns:xlink="http://www.w3.org/1999/xlink">
 <g>
  <path d="m282.24 178.08c-5.6016-5.0391-14.559-5.0391-19.602 0.55859l-86.801 91.84c-5.0391 5.6016-5.0391 14 0 19.039l86.801 91.84c2.8008 2.8008 6.7188 4.4805 10.078 4.4805s6.7188-1.1211 9.5195-3.9219c5.6016-5.0391 5.6016-14 0.55859-19.602l-77.281-82.32 77.281-82.32c5.6055-5.5938 5.0469-14.551-0.55469-19.594zm155.12 0.5625c-5.0391-5.6016-14-5.6016-19.602-0.55859-5.6016 5.0391-5.6016 14-0.55859 19.602l77.281 82.32-77.281 82.32c-5.0391 5.6016-5.0391 14.559 0.55859 19.602 2.8008 2.8008 6.1602 3.9219 9.5195 3.9219 3.9219 0 7.2812-1.6797 10.078-4.4805l86.801-91.84c5.0391-5.6016 5.0391-14 0-19.039zm-62.16-2.8008c-7.2812-1.6797-15.121 2.8008-16.801 10.078l-43.68 180.88c-1.6797 7.2812 2.8008 15.121 10.078 16.801 1.1211 0 2.2383 0.55859 3.3594 0.55859 6.1602 0 12.32-4.4805 13.441-10.641l43.68-180.88c2.2422-7.2773-2.7969-15.117-10.078-16.797zm212.8-5.0391c-8.9609-27.441-24.078-47.039-45.922-59.359-23.52-14-47.039-27.441-70.559-40.879-23.52-13.441-47.039-26.879-70.559-40.879-15.121-8.3984-30.238-12.879-47.039-13.441-20.16-0.55859-37.52 3.3594-52.641 12.32-13.441 7.8398-26.879 15.121-39.762 22.961-33.602 19.039-68.32 39.199-102.48 59.359-32.48 19.602-49.84 49.84-49.84 86.801-0.55859 36.398 0 73.359 0 109.2v54.32c0 10.641 1.6797 20.719 4.4805 29.121 8.9609 25.762 24.078 45.359 45.359 57.68 22.961 13.441 46.48 26.879 70 40.32 23.52 13.441 47.039 26.879 70 40.32 14 8.3984 28.559 12.879 45.359 14h7.8398c17.922 0 34.16-4.4805 48.719-12.879 45.922-26.879 93.52-54.879 140.56-81.762 15.121-8.3984 27.441-20.16 36.398-35.84 10.078-17.359 14.559-31.922 14.559-47.602v-167.44c-0.55078-7.8398-1.6719-17.359-4.4727-26.32zm-24.078 194.88c0 10.078-3.3594 20.719-11.199 33.602-6.1602 11.199-14.559 19.602-25.762 25.762-47.602 26.879-95.199 54.879-141.12 81.762-11.762 6.7188-24.641 9.5195-40.32 8.9609-12.32-1.1211-22.961-4.4805-33.039-10.641-23.52-13.441-46.48-26.879-70-40.32-23.52-13.441-46.48-26.879-70-40.32-15.68-8.9609-26.32-22.398-33.039-42.559-2.2383-5.6016-3.3594-12.32-3.3594-20.16v-54.32-109.2c0-28 11.762-48.16 36.398-63.281 33.602-20.16 68.32-39.762 101.92-59.359 13.441-7.8398 26.879-15.121 40.32-22.961 10.078-6.1602 20.719-8.9609 34.16-8.9609h3.3594c12.32 0.55859 23.52 3.9219 34.16 10.078 23.52 14 47.039 27.441 70.559 40.879 23.52 13.441 47.039 26.879 70.559 40.879 15.68 8.9609 26.32 22.961 33.039 43.68 1.6797 5.6016 2.8008 12.32 2.8008 19.039v167.44z"/>
  <use x="70" y="644" xlink:href="#r"/>
  <use x="90.546875" y="644" xlink:href="#e"/>
  <use x="104.359375" y="644" xlink:href="#c"/>
  <use x="123.347656" y="644" xlink:href="#d"/>
  <use x="142.242188" y="644" xlink:href="#a"/>
  <use x="155.625" y="644" xlink:href="#c"/>
  <use x="174.617188" y="644" xlink:href="#j"/>
  <use x="204.40625" y="644" xlink:href="#g"/>
  <use x="224.453125" y="644" xlink:href="#i"/>
  <use x="252.453125" y="644" xlink:href="#f"/>
  <use x="272.972656" y="644" xlink:href="#b"/>
  <use x="292.210938" y="644" xlink:href="#b"/>
  <use x="311.445312" y="644" xlink:href="#h"/>
  <use x="340.621094" y="644" xlink:href="#g"/>
  <use x="360.664062" y="644" xlink:href="#d"/>
  <use x="379.558594" y="644" xlink:href="#a"/>
  <use x="392.945313" y="644" xlink:href="#a"/>
  <use x="406.328125" y="644" xlink:href="#d"/>
  <use x="70" y="672" xlink:href="#q"/>
  <use x="82.179688" y="672" xlink:href="#e"/>
  <use x="95.992188" y="672" xlink:href="#b"/>
  <use x="115.226562" y="672" xlink:href="#h"/>
  <use x="154.148438" y="672" xlink:href="#a"/>
  <use x="167.535156" y="672" xlink:href="#p"/>
  <use x="187.46875" y="672" xlink:href="#c"/>
  <use x="216.207031" y="672" xlink:href="#o"/>
  <use x="239.640625" y="672" xlink:href="#b"/>
  <use x="258.875" y="672" xlink:href="#n"/>
  <use x="278.8125" y="672" xlink:href="#m"/>
  <use x="308.492188" y="672" xlink:href="#f"/>
  <use x="329.015625" y="672" xlink:href="#e"/>
  <use x="342.820312" y="672" xlink:href="#b"/>
  <use x="362.058594" y="672" xlink:href="#l"/>
  <use x="371.65625" y="672" xlink:href="#c"/>
  <use x="390.648438" y="672" xlink:href="#k"/>
  <use x="407.242188" y="672" xlink:href="#a"/>
 </g>
</svg>
