<?xml version="1.0" encoding="UTF-8"?>
<svg width="700pt" height="700pt" version="1.1" viewBox="0 0 700 700" xmlns="http://www.w3.org/2000/svg" xmlns:xlink="http://www.w3.org/1999/xlink">
 <g>
  <path d="m349.44 31.922c-87.922 0-159.6 71.68-159.6 159.6 0 124.88 159.6 337.12 159.6 337.12s159.6-212.8 159.6-337.12c-0.003907-88.484-71.121-159.6-159.6-159.6zm0 487.2c-25.762-35.281-154-217.28-154-327.6 0-85.121 69.438-154 154-154 85.121 0 154 68.879 154 154 0 109.2-128.24 291.76-154 327.6z"/>
  <path d="m349.44 99.68c-49.281 0-89.602 40.32-89.602 89.602s40.32 89.602 89.602 89.602 89.602-40.32 89.602-89.602c-0.003907-49.281-39.762-89.602-89.602-89.602zm0 173.6c-46.48 0-84-37.52-84-84s37.52-84 84-84c46.48 0 84 37.52 84 84 0 45.918-37.52 84-84 84z"/>
  <use x="70" y="644" xlink:href="#v"/>
  <use x="90.550781" y="644" xlink:href="#c"/>
  <use x="104.359375" y="644" xlink:href="#b"/>
  <use x="123.347656" y="644" xlink:href="#i"/>
  <use x="142.242188" y="644" xlink:href="#d"/>
  <use x="155.628906" y="644" xlink:href="#b"/>
  <use x="174.617188" y="644" xlink:href="#h"/>
  <use x="204.410156" y="644" xlink:href="#g"/>
  <use x="224.453125" y="644" xlink:href="#f"/>
  <use x="252.453125" y="644" xlink:href="#e"/>
  <use x="274.121094" y="644" xlink:href="#u"/>
  <use x="283.71875" y="644" xlink:href="#t"/>
  <use x="302.339844" y="644" xlink:href="#d"/>
  <use x="315.726562" y="644" xlink:href="#a"/>
  <use x="334.960938" y="644" xlink:href="#c"/>
  <use x="358.515625" y="644" xlink:href="#e"/>
  <use x="380.1875" y="644" xlink:href="#a"/>
  <use x="399.421875" y="644" xlink:href="#c"/>
  <use x="413.234375" y="644" xlink:href="#a"/>
  <use x="432.46875" y="644" xlink:href="#g"/>
  <use x="452.511719" y="644" xlink:href="#f"/>
  <use x="470.765625" y="644" xlink:href="#b"/>
  <use x="489.753906" y="644" xlink:href="#s"/>
  <use x="70" y="672" xlink:href="#r"/>
  <use x="82.183594" y="672" xlink:href="#c"/>
  <use x="95.992188" y="672" xlink:href="#a"/>
  <use x="115.226562" y="672" xlink:href="#q"/>
  <use x="154.152344" y="672" xlink:href="#d"/>
  <use x="167.535156" y="672" xlink:href="#p"/>
  <use x="187.46875" y="672" xlink:href="#b"/>
  <use x="216.207031" y="672" xlink:href="#o"/>
  <use x="239.640625" y="672" xlink:href="#a"/>
  <use x="258.878906" y="672" xlink:href="#n"/>
  <use x="278.8125" y="672" xlink:href="#m"/>
  <use x="308.492188" y="672" xlink:href="#l"/>
  <use x="329.015625" y="672" xlink:href="#c"/>
  <use x="342.820312" y="672" xlink:href="#a"/>
  <use x="362.058594" y="672" xlink:href="#k"/>
  <use x="371.65625" y="672" xlink:href="#b"/>
  <use x="390.648438" y="672" xlink:href="#j"/>
  <use x="407.242188" y="672" xlink:href="#d"/>
 </g>
</svg>
