<?xml version="1.0" encoding="UTF-8"?>
<svg width="700pt" height="700pt" version="1.1" viewBox="0 0 700 700" xmlns="http://www.w3.org/2000/svg" xmlns:xlink="http://www.w3.org/1999/xlink">
<g>
  <path d="m288.4 302.4c-50.398-22.398-72.801-33.602-72.801-33.602 179.2-67.199 268.8-106.4 268.8-106.4-33.602 156.8-50.398 235.2-50.398 235.2-72.801-56-106.4-78.398-106.4-78.398 72.801-72.801 106.4-106.4 106.4-106.4-95.199 61.602-145.6 89.602-145.6 89.602zm-67.199-274.4h257.6c67.199 0 123.2 56 123.2 123.2v257.6c0 67.199-56 123.2-123.2 123.2h-257.6c-67.199 0-123.2-56-123.2-123.2v-257.6c0-67.199 56-123.2 123.2-123.2zm16.801 28h224c61.602 0 112 50.398 112 112v224c0 61.602-50.398 112-112 112h-224c-61.602 0-112-50.398-112-112v-224c0-61.602 50.398-112 112-112z" fill-rule="evenodd"/>
  <use x="70" y="644" xlink:href="#v"/>
  <use x="90.550781" y="644" xlink:href="#c"/>
  <use x="104.359375" y="644" xlink:href="#a"/>
  <use x="123.347656" y="644" xlink:href="#i"/>
  <use x="142.242188" y="644" xlink:href="#b"/>
  <use x="155.628906" y="644" xlink:href="#a"/>
  <use x="174.617188" y="644" xlink:href="#h"/>
  <use x="204.410156" y="644" xlink:href="#g"/>
  <use x="224.453125" y="644" xlink:href="#f"/>
  <use x="252.453125" y="644" xlink:href="#e"/>
  <use x="271.578125" y="644" xlink:href="#a"/>
  <use x="290.570312" y="644" xlink:href="#u"/>
  <use x="300.164062" y="644" xlink:href="#t"/>
  <use x="309.765625" y="644" xlink:href="#s"/>
  <use x="70" y="672" xlink:href="#r"/>
  <use x="82.183594" y="672" xlink:href="#c"/>
  <use x="95.992188" y="672" xlink:href="#d"/>
  <use x="115.226562" y="672" xlink:href="#q"/>
  <use x="154.152344" y="672" xlink:href="#b"/>
  <use x="167.535156" y="672" xlink:href="#p"/>
  <use x="187.46875" y="672" xlink:href="#a"/>
  <use x="216.207031" y="672" xlink:href="#o"/>
  <use x="239.640625" y="672" xlink:href="#d"/>
  <use x="258.878906" y="672" xlink:href="#n"/>
  <use x="278.8125" y="672" xlink:href="#m"/>
  <use x="308.492188" y="672" xlink:href="#l"/>
  <use x="329.015625" y="672" xlink:href="#c"/>
  <use x="342.820312" y="672" xlink:href="#d"/>
  <use x="362.058594" y="672" xlink:href="#k"/>
  <use x="371.65625" y="672" xlink:href="#a"/>
  <use x="390.648438" y="672" xlink:href="#j"/>
  <use x="407.242188" y="672" xlink:href="#b"/>
 </g>
</svg>
